<?xml version="1.0" encoding="utf-8"?>
<!-- Generator: Adobe Illustrator 17.1.0, SVG Export Plug-In . SVG Version: 6.00 Build 0)  -->
<!DOCTYPE svg PUBLIC "-//W3C//DTD SVG 1.1//EN" "http://www.w3.org/Graphics/SVG/1.1/DTD/svg11.dtd">
<svg version="1.1" id="Layer_1" xmlns="http://www.w3.org/2000/svg" xmlns:xlink="http://www.w3.org/1999/xlink" x="0px" y="0px"
	 viewBox="0 0 32 32" enable-background="new 0 0 32 32" xml:space="preserve">
<g id="Phones_9_">
	<g id="Galaxy_9_">
		<path fill="#808080" d="M20.7,0.3h-8.9c-2,0-3.6,1.6-3.6,3.6v24.4c0,2,1.6,3.6,3.6,3.6h8.9c2,0,3.6-1.6,3.6-3.6V3.8
			C24.3,1.9,22.7,0.3,20.7,0.3z M21.1,1.6c0.2,0,0.4,0.2,0.4,0.4c0,0.2-0.2,0.4-0.4,0.4s-0.4-0.2-0.4-0.4
			C20.6,1.8,20.8,1.6,21.1,1.6z M19.6,1.8c0.1,0,0.3,0.1,0.3,0.3c0,0.1-0.1,0.3-0.3,0.3c-0.1,0-0.3-0.1-0.3-0.3
			C19.4,1.9,19.5,1.8,19.6,1.8z M18.9,1.8c0.1,0,0.3,0.1,0.3,0.3c0,0.1-0.1,0.3-0.3,0.3c-0.1,0-0.3-0.1-0.3-0.3
			C18.6,1.9,18.7,1.8,18.9,1.8z M14.8,1.4h3.1c0.1,0,0.1,0.1,0.1,0.1c0,0.1-0.1,0.1-0.1,0.1h-3.1c-0.1,0-0.1-0.1-0.1-0.1
			C14.6,1.5,14.7,1.4,14.8,1.4z M18.1,30.2c0,0.3-0.2,0.5-0.5,0.5h-2.6c-0.3,0-0.5-0.2-0.5-0.5c0,0,0-0.1,0-0.1c0,0,0,0,0-0.1
			c0-0.2,0.1-0.3,0.3-0.3h0.1h2.6h0.1c0.2,0,0.3,0.1,0.3,0.3C18.1,30.1,18.1,30.1,18.1,30.2C18.1,30.1,18.1,30.2,18.1,30.2z
			 M23.3,27.9H9.2V3.2h14.1V27.9z"/>
	</g>
</g>
</svg>
